<svg width="94" height="74" viewBox="0 0 94 74" fill="none" xmlns="http://www.w3.org/2000/svg">
<path d="M21.3648 29.3231C20.3198 29.3231 19.317 29.4901 18.3188 29.6424C18.6422 28.5028 18.9749 27.3437 19.5091 26.3024C20.0433 24.7896 20.8774 23.4781 21.7069 22.1569C22.4004 20.7276 23.6235 19.7599 24.5232 18.5369C25.4651 17.3483 26.7491 16.5575 27.7659 15.5702C28.7641 14.5388 30.0715 14.023 31.1118 13.2961C32.1989 12.6428 33.1455 11.9208 34.1577 11.577L36.6835 10.4866L38.9047 9.51896L36.6319 0L33.8344 0.707289C32.9393 0.943053 31.8475 1.21811 30.6057 1.5472C29.3358 1.79278 27.9815 2.46569 26.4726 3.07966C24.9824 3.77713 23.2579 4.24866 21.6553 5.36854C20.0433 6.4393 18.1829 7.33323 16.5428 8.76746C14.9543 10.2459 13.0377 11.5279 11.6225 13.4091C10.0761 15.1675 8.54842 17.0143 7.36285 19.1165C5.98984 21.1205 5.05731 23.321 4.07324 25.4969C3.18289 27.6728 2.46593 29.8978 1.88017 32.059C0.769578 36.3911 0.272856 40.5072 0.0807278 44.0289C-0.078598 47.5555 0.0151231 50.4878 0.211937 52.6097C0.282228 53.6117 0.413438 54.5842 0.507159 55.2571L0.624309 56.0823L0.746147 56.0528C1.57961 60.1336 3.49828 63.8838 6.2802 66.8694C9.06212 69.855 12.5936 71.9541 16.4662 72.9238C20.3387 73.8935 24.3941 73.6943 28.1631 72.3492C31.9321 71.004 35.2608 68.5679 37.7641 65.3227C40.2674 62.0774 41.843 58.1556 42.3087 54.011C42.7744 49.8663 42.111 45.6682 40.3955 41.9022C38.6799 38.1362 35.9822 34.9562 32.6144 32.7301C29.2466 30.5041 25.3463 29.3228 21.3648 29.3231ZM72.9113 29.3231C71.8664 29.3231 70.8635 29.4901 69.8654 29.6424C70.1888 28.5028 70.5215 27.3437 71.0557 26.3024C71.5899 24.7896 72.424 23.4781 73.2534 22.1569C73.947 20.7276 75.17 19.7599 76.0697 18.5369C77.0116 17.3483 78.2956 16.5575 79.3125 15.5702C80.3106 14.5388 81.618 14.023 82.6583 13.2961C83.7455 12.6428 84.6921 11.9208 85.7043 11.577L88.23 10.4866L90.4512 9.51896L88.1785 0L85.3809 0.707289C84.4859 0.943053 83.394 1.21811 82.1522 1.5472C80.8823 1.79278 79.5281 2.46569 78.0191 3.07966C76.5337 3.78204 74.8045 4.24866 73.2019 5.37345C71.5899 6.44421 69.7295 7.33814 68.0894 8.77237C66.5008 10.2508 64.5842 11.5328 63.169 13.4091C61.6226 15.1675 60.095 17.0143 58.9094 19.1165C57.5364 21.1205 56.6039 23.321 55.6198 25.4969C54.7295 27.6728 54.0125 29.8978 53.4267 32.059C52.3161 36.3911 51.8194 40.5072 51.6273 44.0289C51.468 47.5555 51.5617 50.4878 51.7585 52.6097C51.8288 53.6117 51.96 54.5842 52.0537 55.2571L52.1709 56.0823L52.2927 56.0528C53.1262 60.1336 55.0449 63.8838 57.8268 66.8694C60.6087 69.855 64.1402 71.9541 68.0127 72.9238C71.8853 73.8935 75.9406 73.6943 79.7097 72.3492C83.4787 71.004 86.8074 68.5679 89.3107 65.3227C91.814 62.0774 93.3896 58.1556 93.8553 54.011C94.3209 49.8663 93.6576 45.6682 91.942 41.9022C90.2264 38.1362 87.5287 34.9562 84.1609 32.7301C80.7931 30.5041 76.8929 29.3228 72.9113 29.3231Z" fill="#2C9A6C" fill-opacity="0.22"/>
</svg>
